<?xml version="1.0" encoding="UTF-8"?>
<svg xmlns="http://www.w3.org/2000/svg" viewBox="250 1580 2760 1600" fill="none">
 <g id="Слой_x0020_1">
  <g id="_2772247279312">
   <path fill="none" stroke="#4E50EA" stroke-width="2.36" stroke-miterlimit="22.9256" d="M2991.37 3146.52c-81.01,1.62 -188.77,15.11 -262.86,-19.06 -80.11,-36.95 -169.99,-63.87 -234.99,-123.54 -85.04,-78.07 -173.8,-117.04 -291.54,-112.68 -21.84,0.81 -41.43,1.91 -58.76,2.27 -52.24,31.78 -113.99,46.22 -185.24,33.18 -120.89,-22.11 -179.27,-122.17 -223.14,-224.49 -125.22,-292.05 -293.11,-465.59 -612.31,-532.71 -294.99,-62.02 -312.98,-62.77 -567.32,-252.77 -64.2,-47.96 -293.52,-220.86 -285.68,-292.18 -4.49,72.84 221.27,241.71 286.93,290.5 254.67,189.25 271.84,189.69 566.75,251.21 320.57,66.86 489.69,241.16 615.75,534.22 43.28,100.62 100.73,199.82 219.84,221.45 66.52,12.09 124.58,-0.2 174.21,-28.28 -71.1,0.11 -99.31,-17.46 -81.03,-136.08 26.69,-173.24 57.06,-180.02 -0.44,-363.01 -62.81,-199.91 -45.72,-231.71 -13.23,-419.1 -42.65,49.63 -65.37,150.11 -72.43,212.41 -23.61,208.5 79.88,329.48 67.24,533.18 -20.17,325.22 -247.74,50.52 -296.48,-88.95 -60.54,-173.23 -46.27,-503.17 112.39,-633.87 153.08,-126.1 291.4,-103.52 405.57,55.02 83.41,115.84 118.17,345.62 95.56,482.25 -20.83,125.89 -85.48,275.2 -193.56,349.35 13.6,-0.6 28.56,-1.45 44.88,-2.07 120.87,-4.55 211.16,35.31 298.47,115.31 62.42,57.2 156.41,86.63 233.7,122.18 69.11,31.79 181.3,18.83 257.72,17.26 2.49,0 4.5,2.02 4.5,4.5 0,2.49 -2.01,4.5 -4.5,4.5zm-844.49 -261.29c111.06,-71.69 177,-223.65 197.89,-350.64 22.23,-135.1 -12.38,-363.38 -94.98,-477.88 -112.32,-155.69 -246.6,-177.49 -396.8,-53.55 -163.91,135.25 -174.94,499.56 -92.49,669.22 24.1,49.6 177.71,284.62 242.6,156.16 56.25,-111.37 4.27,-295.43 -24.13,-408.68 -35.84,-142.91 -38.76,-274.37 29.94,-409.1 2.38,-4.67 44.08,-75 38.34,-41.24 -32.78,192.85 -51.48,220.99 11.99,422.55 58.18,184.77 27.76,192.15 0.96,366.82 -18.31,119.27 10.64,129.03 86.68,126.34z"/>
  </g>
  <path fill="none" d="M2991.37 3142.02c-53.42,0 -216.48,13.05 -260.29,-18.16 -26.02,-18.54 -181.93,-65.14 -234.34,-122.86 -61.19,-67.38 -180.95,-120.74 -295.01,-113.99 -69.22,4.09 -145.04,23.79 -150.39,-60.25 -5.47,-85.77 46.34,-194.44 34.6,-320.74 -5.52,-59.43 -53.31,-152.29 -67.9,-266.5 -14.32,-112.12 9.19,-181.2 25.37,-270.7 4.35,-24.06 -63.17,90.61 -72.12,150.36 -30.93,206.65 -10.01,196.05 47.11,445.61 18.69,81.66 20.21,238.09 -27.83,289 -52.41,55.53 -141.05,-36.68 -210.18,-139.43 -69.34,-103.05 -72.02,-252.21 -72.02,-284.51 0,-126.4 14.08,-325.84 142.64,-429.16 99.93,-80.31 177.18,-108.6 288.78,-51.36 56.1,28.77 131.83,113.22 162.54,197.88 2.9,7.99 35.52,113.96 49.01,219.43 19.76,154.62 -29.96,300.91 -88.31,400.23 -32.35,55.05 -86.06,112.74 -157.74,141.93 -58.41,23.78 -139.8,25.86 -188.95,2.97 -131.61,-61.29 -154.4,-156.7 -193.62,-243.21 -103.05,-227.28 -221.08,-359.45 -447.32,-458.39 -104.35,-45.63 -314.21,-60.61 -451.75,-118.81 -89.72,-37.96 -570.13,-373.44 -554.12,-466.82"/>
 </g>
</svg>
